<svg viewBox="0 -35 512 512" xmlns="http://www.w3.org/2000/svg"><path d="m358.117188 37.5v60h-30v-58c0-1.105469-.894532-2-2-2h-146c-1.105469 0-2 .894531-2 2v58h-30v-60c0-16.570312 13.433593-30 30-30h150c16.570312 0 30 13.429688 30 30zm0 0" fill="#e2ebf9"/><path d="m328.117188 7.5h-30c16.570312 0 30 13.429688 30 30v60h30v-60c0-16.570312-13.429688-30-30-30zm0 0" fill="#c1c8d2"/><path d="m474.5 433.5h-437c-16.570312 0-30-13.429688-30-30v-300c0-16.570312 13.429688-30 30-30h437c16.570312 0 30 13.429688 30 30v300c0 16.570312-13.429688 30-30 30zm0 0" fill="#ffaa16"/><path d="m474.5 73.5h-30c16.570312 0 30 13.429688 30 30v300c0 16.570312-13.429688 30-30 30h30c16.570312 0 30-13.429688 30-30v-300c0-16.570312-13.429688-30-30-30zm0 0" fill="#ff914d"/><path d="m238.609375 154.421875h127.988281v116.671875h-127.988281zm0 0" fill="#76ffda"/><path d="m336.597656 154.421875h30v116.671875h-30zm0 0" fill="#5de1c0"/><path d="m63 73.5h30v360h-30zm0 0" fill="#5de1c0"/><path d="m419 73.5h30v360h-30zm0 0" fill="#5de1c0"/><path d="m139.636719 186.425781h127.992187v84.667969h-127.992187zm0 0" fill="#fff"/><path d="m237.628906 186.425781h30v84.667969h-30zm0 0" fill="#e2ebf9"/><path d="m93 271.09375h326v30h-326zm0 0" fill="#e2ebf9"/><path d="m389 271.09375h30v30h-30zm0 0" fill="#c1c8d2"/><path d="m237.628906 216.425781v54.664063h-67.992187v-54.664063zm0 0" fill="#ff914d"/><g fill="#ff8125"><path d="m476 349.578125h-27c-4.144531 0-7.5-3.355469-7.5-7.5 0-4.140625 3.355469-7.5 7.5-7.5h27c4.144531 0 7.5 3.359375 7.5 7.5 0 4.144531-3.355469 7.5-7.5 7.5zm0 0"/><path d="m63 349.578125h-27c-4.144531 0-7.5-3.355469-7.5-7.5 0-4.140625 3.355469-7.5 7.5-7.5h27c4.144531 0 7.5 3.359375 7.5 7.5 0 4.144531-3.355469 7.5-7.5 7.5zm0 0"/><path d="m419 349.578125h-326c-4.144531 0-7.5-3.355469-7.5-7.5 0-4.140625 3.355469-7.5 7.5-7.5h326c4.144531 0 7.5 3.359375 7.5 7.5 0 4.144531-3.355469 7.5-7.5 7.5zm0 0"/><path d="m476 379.578125h-27c-4.144531 0-7.5-3.355469-7.5-7.5 0-4.140625 3.355469-7.5 7.5-7.5h27c4.144531 0 7.5 3.359375 7.5 7.5 0 4.144531-3.355469 7.5-7.5 7.5zm0 0"/><path d="m63 379.578125h-27c-4.144531 0-7.5-3.355469-7.5-7.5 0-4.140625 3.355469-7.5 7.5-7.5h27c4.144531 0 7.5 3.359375 7.5 7.5 0 4.144531-3.355469 7.5-7.5 7.5zm0 0"/><path d="m419 379.578125h-326c-4.144531 0-7.5-3.355469-7.5-7.5 0-4.140625 3.355469-7.5 7.5-7.5h326c4.144531 0 7.5 3.359375 7.5 7.5 0 4.144531-3.355469 7.5-7.5 7.5zm0 0"/><path d="m476 409.578125h-27c-4.144531 0-7.5-3.355469-7.5-7.5 0-4.140625 3.355469-7.5 7.5-7.5h27c4.144531 0 7.5 3.359375 7.5 7.5 0 4.144531-3.355469 7.5-7.5 7.5zm0 0"/><path d="m63 409.578125h-27c-4.144531 0-7.5-3.355469-7.5-7.5 0-4.140625 3.355469-7.5 7.5-7.5h27c4.144531 0 7.5 3.359375 7.5 7.5 0 4.144531-3.355469 7.5-7.5 7.5zm0 0"/><path d="m419 409.578125h-326c-4.144531 0-7.5-3.355469-7.5-7.5 0-4.140625 3.355469-7.5 7.5-7.5h326c4.144531 0 7.5 3.359375 7.5 7.5 0 4.144531-3.355469 7.5-7.5 7.5zm0 0"/></g><path d="m474.5 66h-108.878906v-28.5c0-20.679688-16.824219-37.5-37.5-37.5h-150c-20.679688 0-37.5 16.820312-37.5 37.5v28.5h-103.121094c-20.679688 0-37.5 16.820312-37.5 37.5v21.5c0 4.144531 3.355469 7.5 7.5 7.5s7.5-3.355469 7.5-7.5v-21.5c0-12.40625 10.09375-22.5 22.5-22.5h18v345h-18c-12.40625 0-22.5-10.09375-22.5-22.5v-246c0-4.144531-3.355469-7.5-7.5-7.5s-7.5 3.355469-7.5 7.5v246c0 20.679688 16.820312 37.5 37.5 37.5h313.5c4.144531 0 7.5-3.355469 7.5-7.5s-3.355469-7.5-7.5-7.5h-250.5v-117.40625h311v117.40625h-26.5c-4.144531 0-7.5 3.355469-7.5 7.5s3.355469 7.5 7.5 7.5h89.5c20.679688 0 37.5-16.820312 37.5-37.5v-300c0-20.679688-16.820312-37.5-37.5-37.5zm-63 197.59375h-136.371094v-77.167969c0-4.144531-3.359375-7.5-7.5-7.5h-127.992187c-4.140625 0-7.5 3.355469-7.5 7.5v77.167969h-31.636719v-182.59375h311zm-151.371094 0h-112.992187v-69.667969h112.992187zm60.492188-197.59375h-135v-21h135zm-165-28.5c0-12.40625 10.09375-22.5 22.5-22.5h150c12.40625 0 22.5 10.09375 22.5 22.5v28.5h-15v-26.5c0-5.238281-4.261719-9.5-9.5-9.5h-146c-5.238282 0-9.5 4.261719-9.5 9.5v26.5h-15zm-85.121094 388.5v-345h15v345zm30-132.40625v-15h311v15zm396.5 109.90625c0 12.40625-10.09375 22.5-22.5 22.5h-18v-172.5c0-4.144531-3.355469-7.5-7.5-7.5s-7.5 3.355469-7.5 7.5v172.5h-15v-345h15v139.5c0 4.144531 3.355469 7.5 7.5 7.5s7.5-3.355469 7.5-7.5v-139.5h18c12.40625 0 22.5 10.09375 22.5 22.5zm0 0" fill="#434c54"/></svg>