<svg id="Capa_1" enable-background="new 0 0 512 512" height="512" viewBox="0 0 512 512" width="512" xmlns="http://www.w3.org/2000/svg"><g><path d="m484.147 449.226h-456.294c-15.383 0-27.853-12.47-27.853-27.853v-277.129c0-15.383 12.47-27.853 27.853-27.853h456.294c15.383 0 27.853 12.47 27.853 27.853v277.129c0 15.383-12.47 27.853-27.853 27.853z" fill="#698ed5"/><path d="m484.147 116.391h-32.845c15.383 0 27.853 12.47 27.853 27.853v277.129c0 15.383-12.47 27.853-27.853 27.853h32.845c15.383 0 27.853-12.47 27.853-27.853v-277.129c0-15.383-12.47-27.853-27.853-27.853z" fill="#4073c8"/><path d="m197.056 116.391v-27.517c0-12.688 10.323-23.01 23.011-23.01h71.866c12.688 0 23.011 10.322 23.011 23.01v27.517h33.996v-27.517c0-31.434-25.573-57.006-57.007-57.006h-71.866c-31.434 0-57.007 25.572-57.007 57.006v27.517z" fill="#365e7d"/><g fill="#2b4d66"><path d="m163.06 95.292h33.996v21.099h-33.996z"/><path d="m314.944 95.292h33.996v21.099h-33.996z"/></g><circle cx="148.457" cy="196.219" fill="#dd636e" r="40.558"/><path d="m148.457 155.661c-3.94 0-7.745.573-11.347 1.621 16.874 4.91 29.21 20.478 29.21 38.937s-12.336 34.027-29.21 38.937c3.602 1.048 7.407 1.621 11.347 1.621 22.399 0 40.558-18.159 40.558-40.558 0-22.4-18.158-40.558-40.558-40.558z" fill="#da4a54"/><g fill="#cbe2ff"><path d="m81.962 116.391h41.48v332.835h-41.48z"/><path d="m388.558 116.391h41.48v332.835h-41.48z"/></g><path d="m351.95 282.365h-71.117c-.89 0-1.611-.721-1.611-1.611v-71.117c0-.89.721-1.611 1.611-1.611h71.117c.89 0 1.611.721 1.611 1.611v71.117c-.001.889-.722 1.611-1.611 1.611z" fill="#eab14d"/><path d="m330.339 208.025v74.339h21.611c.89 0 1.611-.721 1.611-1.611v-71.117c0-.89-.721-1.611-1.611-1.611z" fill="#e7a52e"/><path d="m202.255 345.451-42.975 59.563c-.75 1.039-.007 2.49 1.274 2.49h85.95c1.281 0 2.024-1.451 1.274-2.49l-42.975-59.563c-.627-.869-1.921-.869-2.548 0z" fill="#ffe07d"/><path d="m202.255 345.451-10.205 14.144 34.567 47.909h19.887c1.281 0 2.024-1.451 1.274-2.49l-42.975-59.563c-.627-.869-1.92-.869-2.548 0z" fill="#ffd064"/><g><path d="m341.949 353.438h-41.512c-4.268 0-7.726-3.459-7.726-7.726 0-4.268 3.459-7.726 7.726-7.726h41.512c4.268 0 7.726 3.459 7.726 7.726.001 4.267-3.458 7.726-7.726 7.726z" fill="#b3e59f"/></g><g><path d="m352.251 386.682h-62.116c-4.268 0-7.726-3.459-7.726-7.726s3.459-7.726 7.726-7.726h62.116c4.268 0 7.726 3.459 7.726 7.726s-3.458 7.726-7.726 7.726z" fill="#b3e59f"/></g><g fill="#365e7d"><path d="m133.208 480.132h-19.898c-2.972 0-5.504-2.159-5.974-5.093l-4.136-25.812h40.119l-4.136 25.812c-.471 2.934-3.003 5.093-5.975 5.093z"/><path d="m398.69 480.132h-19.899c-2.972 0-5.504-2.159-5.974-5.093l-4.136-25.812h40.119l-4.136 25.812c-.47 2.934-3.002 5.093-5.974 5.093z"/></g></g></svg>