<svg id="Capa_1" enable-background="new 0 0 489.999 489.999" height="512" viewBox="0 0 489.999 489.999" width="512" xmlns="http://www.w3.org/2000/svg"><g><path d="m437.493 312.107c-.126 1.269-.2 2.56-.2 3.871 0 19.603 15.359 35.635 34.694 36.714.365.02 1.094.032 1.74.038.67.005 1.209.55 1.209 1.22v42.37c0 19.294-15.641 34.935-34.935 34.935h-392.578c-19.294 0-34.935-15.641-34.935-34.935v-39.056c0-2.472 1.832-4.543 4.279-4.885 1.826-.255 3.609-.644 5.341-1.16 15.202-4.522 26.28-18.58 26.28-35.24 0-9.075-3.284-17.373-8.729-23.773-.021-.031-.052-.073-.094-.105-5.678-6.65-13.7-11.247-22.786-12.523-2.452-.345-4.292-2.411-4.292-4.888v-33.271c0-19.294 15.641-34.935 34.935-34.935h392.588c19.289 0 34.925 15.636 34.925 34.925v36.606c0 .667-.546 1.213-1.212 1.212-.222 0-.412 0-.506.002-18.602.423-33.812 14.66-35.724 32.878z" fill="#0067c5"/><path d="m474.936 241.407v36.6c0 .67-.538 1.214-1.208 1.22-.666.006-1.428.019-1.809.041-18.01 1.037-32.558 15.045-34.425 32.839l-360.423 103.747c-18.548 5.34-37.894-5.371-43.234-23.909l-11.729-40.727c15.202-4.522 26.28-18.58 26.28-35.24 0-9.075-3.284-17.373-8.729-23.773-.021-.031-.052-.073-.094-.105-5.678-6.65-13.7-11.247-22.786-12.523-2.452-.345-4.292-2.411-4.292-4.888v-33.271c0-19.294 15.641-34.935 34.935-34.935h392.588c19.289 0 34.926 15.636 34.926 34.924z" fill="#0055a3"/><path d="m464.72 276.119-112.18 32.29-14.42 4.15-250.67 72.15c-18.54 5.34-37.89-5.37-43.23-23.91l-10.604-36.84c-.783-2.72.514-5.622 3.081-6.814 16.147-7.503 24.875-25.844 19.793-43.485-5.069-17.627-22.188-28.524-39.841-26.313-2.803.351-5.463-1.305-6.245-4.019l-9.034-31.389c-5.33-18.54 5.37-37.9 23.91-43.23l250.67-72.15 14.42-4.15 112.18-32.29c18.54-5.34 37.89 5.36 43.23 23.9l9.606 33.372c.47 1.633-.422 3.35-2.03 3.898-.971.331-1.96.687-2.572.955-16.634 7.28-25.715 25.929-20.554 43.845 5.354 18.587 24.096 29.695 42.735 25.845.17-.035.39-.086.638-.147 1.665-.408 3.359.565 3.833 2.212l11.193 38.889c5.331 18.541-5.369 37.891-23.909 43.231z" fill="#d3e1f5"/><path d="m445.443 82.956c-5.761-17.879-24.713-28.073-42.894-22.84l-377.271 108.59c-17.844 5.136-28.421 23.255-24.433 41.138z" fill="#b3ceec"/><path d="m283.159 94.48 62.172 216.003-257.881 74.226c-18.539 5.336-37.894-5.367-43.23-23.906l-10.603-36.839c-.783-2.72.514-5.622 3.081-6.814 16.148-7.504 24.875-25.845 19.797-43.49-5.075-17.631-22.193-28.522-39.845-26.316-2.803.35-5.463-1.306-6.244-4.02l-9.034-31.387c-5.336-18.539 5.367-37.894 23.906-43.23z" fill="#b3ceec"/><path d="m283.159 94.48-257.88 74.226c-11.259 3.258-21.18 12.614-24.141 24.765-1.361 5.212-1.533 10.798-.294 16.363.001.003.001.007.002.01l291.567-83.213z" fill="#98bce5"/><g fill="#eaf6ff"><path d="m177.986 250.095-3.463 60.474c-.123 2.142 1.908 3.764 3.97 3.17l16.806-4.837c1.06-.305 1.879-1.148 2.154-2.215l17.003-65.97z"/><path d="m172.631 231.491-35.082-49.38c-1.243-1.749-.385-4.202 1.677-4.796l16.806-4.837c1.06-.305 2.201-.027 3.002.731l49.472 46.836z"/><path d="m102.055 250.686s112.934-39.221 126.37-43.088 28.53 9.694 28.53 9.694-5.575 19.511-19.011 23.378-129.94 30.686-129.94 30.686l-11.56 3.966c-1.403.481-2.95-.094-3.699-1.374l-13.914-23.805c-1.398-2.392.789-5.281 3.471-4.585z"/></g><path d="m402.39 123.952-65.027 18.717c-2.877.828-5.881-.833-6.709-3.71l-5.393-18.738c-.828-2.877.833-5.881 3.71-6.709l65.027-18.717c2.877-.828 5.881.833 6.709 3.71l5.393 18.738c.828 2.878-.833 5.881-3.71 6.709z" fill="#60b7ff"/><path d="m295.538 269.688 14.653 50.909-41.34 11.899-14.653-50.909c-.943-3.277.949-6.699 4.226-7.642l29.473-8.483c3.277-.943 6.698.949 7.641 4.226z" fill="#fee903"/><path d="m419.925 400.062h-71.717c-3.064 0-5.547-2.483-5.547-5.547v-17.944c0-3.064 2.483-5.547 5.547-5.547h71.717c3.063 0 5.547 2.483 5.547 5.547v17.944c0 3.064-2.484 5.547-5.547 5.547z" fill="#ffefd2"/><g><g><g><path d="m352.54 308.409-14.42 4.15-2.9-10.09c-1.15-3.98 1.15-8.14 5.13-9.28 3.97-1.15 8.14 1.15 9.28 5.13z" fill="#d3e1f5"/></g><g><path d="m339.67 263.709-5.5-19.13c-1.15-3.98-5.31-6.28-9.28-5.13-3.98 1.14-6.28 5.3-5.14 9.28l5.51 19.13c.94 3.29 3.94 5.43 7.2 5.43.69 0 1.39-.1 2.08-.3 3.98-1.14 6.28-5.3 5.13-9.28zm-15.46-53.74-5.51-19.13c-1.15-3.98-5.3-6.27-9.28-5.13-3.98 1.15-6.28 5.3-5.13 9.28l5.5 19.13c.95 3.29 3.95 5.43 7.2 5.43.69 0 1.39-.1 2.08-.3 3.98-1.14 6.28-5.3 5.14-9.28zm-15.47-53.74-5.51-19.12c-1.14-3.98-5.31-6.28-9.28-5.14-3.98 1.15-6.28 5.31-5.13 9.29l5.5 19.12c.95 3.29 3.95 5.43 7.21 5.43.68 0 1.38-.09 2.07-.29 3.98-1.15 6.28-5.31 5.14-9.29z" fill="#d3e1f5"/></g><g><path d="m288.14 111.779c-.69.2-1.39.29-2.08.29-3.26 0-6.26-2.14-7.2-5.42l-2.91-10.09 14.42-4.15 2.9 10.09c1.15 3.98-1.15 8.13-5.13 9.28z" fill="#d3e1f5"/></g></g></g><g><path d="m400.278 240.616c-3.258 0-6.257-2.14-7.203-5.427-1.146-3.981 1.152-8.136 5.133-9.282l40.307-11.602c3.972-1.146 8.135 1.151 9.281 5.133 1.146 3.981-1.152 8.136-5.133 9.282l-40.307 11.602c-.692.199-1.39.294-2.078.294z" fill="#98bce5"/></g><g><path d="m407.715 266.454c-3.258 0-6.257-2.14-7.203-5.428-1.146-3.98 1.152-8.136 5.133-9.282l40.307-11.601c3.973-1.146 8.135 1.151 9.281 5.133 1.146 3.98-1.152 8.136-5.133 9.282l-40.307 11.601c-.693.2-1.392.295-2.078.295z" fill="#98bce5"/></g><g><path d="m81.253 349.228c-3.258 0-6.257-2.14-7.203-5.427-1.146-3.981 1.152-8.136 5.133-9.282l56.843-16.361c3.973-1.145 8.136 1.151 9.281 5.133 1.146 3.981-1.152 8.136-5.133 9.282l-56.843 16.361c-.693.199-1.391.294-2.078.294z" fill="#596c76"/></g><g><path d="m305.938 391.54h-79.732c-4.143 0-7.5-3.358-7.5-7.5s3.357-7.5 7.5-7.5h79.732c4.143 0 7.5 3.358 7.5 7.5s-3.357 7.5-7.5 7.5z" fill="#60b7ff"/></g></g></svg>