<svg id="Capa_1" enable-background="new 0 0 496.29 496.29" height="512" viewBox="0 0 496.29 496.29" width="512" xmlns="http://www.w3.org/2000/svg"><g><g><path d="m84.921 469.564-75.814-388.043c-2.3-11.768 5.376-23.172 17.144-25.471l58.67-11.463 92.065-20.254 132.277 445.23h-224.342z" fill="#e5e1e5"/></g><path d="m84.921 313.109-44.781-229.205 44.781-8.75 68.018-11.169 29.795 276.508z" fill="#99e6fc"/><g id="XMLID_159_"><g><path d="m487.59 21.71v452.87c0 11.99-9.72 21.71-21.71 21.71h-359.25c-11.99 0-21.71-9.72-21.71-21.71v-452.87c0-11.99 9.72-21.71 21.71-21.71h359.25c11.99 0 21.71 9.72 21.71 21.71z" fill="#f9f7f8"/></g><path d="m279.528 450.384c-42.97 0-77.804-34.834-77.804-77.804v-372.58h-95.094c-11.99 0-21.71 9.72-21.71 21.71v452.87c0 11.99 9.72 21.71 21.71 21.71h359.25c11.99 0 21.71-9.72 21.71-21.71v-24.196z" fill="#efedef"/><path d="m457.59 339.869v-237.769c0-3.369-2.731-6.1-6.1-6.1h-330.469c-3.369 0-6.1 2.731-6.1 6.1v237.769z" fill="#fec165"/><path d="m201.724 96h-80.703c-3.369 0-6.1 2.731-6.1 6.1v237.769h86.803z" fill="#fdb441"/><circle cx="286.255" cy="274.953" fill="#fee903" r="116.804"/><path d="m201.724 355.56v-161.214c-19.995 20.962-32.272 49.351-32.272 80.607s12.277 59.645 32.272 80.607z" fill="#f4d902"/><g><path d="m434.83 307.12c-27.24-12.01-57.99-13.37-86.18-3.8l-24.2 8.2c-24.77 8.4-51.62 8.4-76.39 0l-24.2-8.2c-28.19-9.57-58.94-8.21-86.17 3.8l-22.77 10.04v49.79l37.896 15.776h283.632l21.142-15.776v-49.79z" fill="#99e6fc"/><path d="m201.724 382.726v-84.618c-21.625-2.951-43.801.088-64.033 9.012l-22.77 10.04v49.79l37.896 15.776z" fill="#62dbfb"/><path d="m457.59 366.95v29.188c0 2.58-2.092 4.672-4.672 4.672h-333.326c-2.58 0-4.672-2.092-4.672-4.672v-29.188l22.77-10.04c27.23-12.01 57.98-13.37 86.17-3.81l24.2 8.21c24.77 8.4 51.62 8.4 76.39 0l24.2-8.21c28.19-9.56 58.94-8.2 86.18 3.81z" fill="#62dbfb"/><path d="m119.592 400.81h87.436c-3.412-8.755-5.304-18.269-5.304-28.23v-24.685c-21.625-2.947-43.801.092-64.033 9.016l-22.77 10.04v29.188c-.001 2.579 2.091 4.671 4.671 4.671z" fill="#01d0fb"/></g></g></g></svg>